<?xml version="1.0" encoding="UTF-8"?>
<svg version="1.1" xmlns="http://www.w3.org/2000/svg" width="1920" height="1" viewBox="0 230 1920 1">
<path d="M0 0 C633.6 0 1267.2 0 1920 0 C1920 75.9 1920 151.8 1920 230 C1908.7504358 228.87504358 1908.7504358 228.87504358 1903.59410095 227.97343445 C1902.42372787 227.7706337 1901.2533548 227.56783295 1900.04751587 227.35888672 C1898.16955826 227.02787964 1898.16955826 227.02787964 1896.25366211 226.69018555 C1894.89287264 226.45303542 1893.53202595 226.21621347 1892.17112732 225.97969055 C1889.2452474 225.47049843 1886.31976663 224.95909099 1883.39457512 224.44595909 C1878.68232885 223.61946164 1873.96910849 222.79861192 1869.25575256 221.97846985 C1858.31620749 220.07408732 1847.37790502 218.16260708 1836.4396286 216.25095367 C1824.15710767 214.10445071 1811.87412471 211.96062888 1799.58984375 209.82421875 C1798.77488214 209.68247884 1797.95992052 209.54073893 1797.1202631 209.39470387 C1771.70756955 204.97671075 1746.27692395 200.67739965 1720.82421875 196.49609375 C1720.08761796 196.37493816 1719.35101717 196.25378257 1718.59209514 196.1289556 C1689.99965956 191.42630773 1661.38380684 186.8295278 1632.70703125 182.66796875 C1631.97652872 182.56175894 1631.24602619 182.45554913 1630.49338722 182.34612083 C1562.95242804 172.54794365 1495.08111654 164.81467807 1427 160 C1426.0060321 159.92952454 1425.01206421 159.85904907 1423.98797607 159.78643799 C1408.66649917 158.70796867 1393.33896666 157.79043732 1378 157 C1376.46666016 156.9200882 1376.46666016 156.9200882 1374.90234375 156.83856201 C1310.14530763 153.50705544 1244.7470171 153.40579793 1180 157 C1178.85315735 157.06316406 1177.7063147 157.12632812 1176.52471924 157.19140625 C1109.97680736 160.90386731 1043.83342859 168.15571695 978 178.5 C883.66937338 193.32041874 788.73342958 205.65744928 538.91992188 227.77996826 C535.04503757 227.99747197 531.17096765 228.22638352 527.296875 228.45751953 C484.84170299 230.94894623 442.38553026 231.29062856 399.86915588 231.31007385 C397.02506737 231.31140179 394.18098498 231.31397657 391.3368988 231.31785583 C354.85150702 231.3673525 318.4424684 230.89913202 282 229 C281.24993557 228.96118839 280.49987114 228.92237679 279.72707748 228.88238907 C270.9988765 228.42667187 262.28000889 227.87613613 253.5625 227.25 C252.39193054 227.16763092 251.22136108 227.08526184 250.01531982 227.00039673 C169.24189253 221.27069635 89.16453524 210.01688882 10 193 C9.15321686 192.8225827 8.30643372 192.64516541 7.43399048 192.46237183 C6.61635223 192.28779449 5.79871399 192.11321716 4.95629883 191.93334961 C4.22010818 191.77797226 3.48391754 191.62259491 2.72541809 191.46250916 C1 191 1 191 0 190 C0 127.3 0 64.6 0 0 Z " fill="#FFFFFF" transform="translate(0,0)"/>
<path d="M0 0 C6.28569742 0.01136856 12.57122485 0.00462447 18.85691643 -0.00688553 C51.05524232 -0.05673044 83.15289859 0.60216205 115.30908203 2.26074219 C116.31108202 2.31236134 117.31308201 2.36398048 118.34544563 2.41716385 C140.3548901 3.55853011 140.3548901 3.55853011 150.85205078 4.28417969 C152.40523262 4.39129776 152.40523262 4.39129776 153.98979187 4.50057983 C195.16732705 7.41700966 236.31417778 11.44351906 277.30908203 16.26074219 C278.24812378 16.37033264 279.18716553 16.4799231 280.15466309 16.59283447 C309.75444299 20.05119584 339.21393703 24.23321867 368.66441345 28.78265381 C375.68884627 29.86558978 382.71709462 30.91738221 389.75048828 31.94042969 C433.60230128 38.32881721 477.35437573 45.46917406 520.96508789 53.33813477 C535.4593799 55.95158236 549.9741816 58.43361386 564.49658203 60.88574219 C583.26237367 64.05571632 602.01313693 67.29551059 620.75 70.63183594 C624.29022272 71.25740966 627.83229581 71.87097983 631.37548828 72.47949219 C632.46039551 72.66600342 633.54530273 72.85251465 634.66308594 73.04467773 C636.64289237 73.38405073 638.62301097 73.72161048 640.60351562 74.05688477 C641.45381348 74.20279053 642.30411133 74.34869629 643.18017578 74.49902344 C643.91163818 74.62317627 644.64310059 74.7473291 645.39672852 74.87524414 C647.30908203 75.26074219 647.30908203 75.26074219 650.30908203 76.26074219 C650.30908203 79.23074219 650.30908203 82.20074219 650.30908203 85.26074219 C642.30382402 84.57321184 634.47303798 83.34518885 626.56274414 81.95092773 C625.20195467 81.71377761 623.84110798 81.47695566 622.48020935 81.24043274 C619.55432943 80.73124062 616.62884866 80.21983318 613.70365715 79.70670128 C608.99141088 78.88020382 604.27819052 78.05935411 599.56483459 77.23921204 C588.62528952 75.3348295 577.68698705 73.42334927 566.74871063 71.51169586 C554.4661897 69.3651929 542.18320674 67.22137107 529.89892578 65.08496094 C529.08396417 64.94322103 528.26900255 64.80148111 527.42934513 64.65544605 C502.01665158 60.23745293 476.58600598 55.93814184 451.13330078 51.75683594 C450.39669999 51.63568035 449.6600992 51.51452476 448.90117717 51.38969779 C420.30874159 46.68704992 391.69288887 42.09026998 363.01611328 37.92871094 C362.28561075 37.82250113 361.55510822 37.71629131 360.80246925 37.60686302 C293.26151007 27.80868584 225.39019858 20.07542026 157.30908203 15.26074219 C156.31511414 15.19026672 155.32114624 15.11979126 154.29705811 15.04718018 C138.9755812 13.96871086 123.64804869 13.05117951 108.30908203 12.26074219 C106.77574219 12.18083038 106.77574219 12.18083038 105.21142578 12.0993042 C40.45438966 8.76779763 -24.94390086 8.66654012 -89.69091797 12.26074219 C-90.83776062 12.32390625 -91.98460327 12.38707031 -93.16619873 12.45214844 C-159.7141106 16.1646095 -225.85748937 23.41645914 -291.69091797 33.76074219 C-386.02154459 48.58116092 -480.95748839 60.91819147 -730.77099609 83.04071045 C-734.6458804 83.25821415 -738.51995032 83.48712571 -742.39404297 83.71826172 C-784.84921498 86.20968842 -827.3053877 86.55137075 -869.82176208 86.57081604 C-872.6658506 86.57214398 -875.50993299 86.57471875 -878.35401917 86.57859802 C-914.83941095 86.62809468 -951.24844957 86.15987421 -987.69091797 84.26074219 C-988.81601461 84.20252478 -988.81601461 84.20252478 -989.96384048 84.14313126 C-998.69204147 83.68741406 -1007.41090908 83.13687832 -1016.12841797 82.51074219 C-1017.29898743 82.42837311 -1018.46955688 82.34600403 -1019.67559814 82.26113892 C-1100.44902544 76.53143854 -1180.52638273 65.277631 -1259.69091797 48.26074219 C-1260.53770111 48.08332489 -1261.38448425 47.90590759 -1262.25692749 47.72311401 C-1263.48338486 47.46124802 -1263.48338486 47.46124802 -1264.73461914 47.1940918 C-1265.47080978 47.03871445 -1266.20700043 46.8833371 -1266.96549988 46.72325134 C-1268.69091797 46.26074219 -1268.69091797 46.26074219 -1269.69091797 45.26074219 C-1269.83269653 42.26070774 -1269.73320568 39.26316984 -1269.69091797 36.26074219 C-1263.43090305 37.48315003 -1257.19383596 38.79346613 -1250.96044922 40.14355469 C-1214.17184147 48.07769889 -1177.18629695 54.52269486 -1139.87072754 59.41706848 C-1136.30102469 59.89082034 -1132.74027619 60.40075325 -1129.18286133 60.9597168 C-1115.04380829 63.17988665 -1100.86557123 64.74964361 -1086.62841797 66.19824219 C-1085.36504608 66.32735992 -1084.10167419 66.45647766 -1082.80001831 66.58950806 C-1057.89868507 69.1232432 -1032.99528511 71.40502213 -1008.01794434 73.04071045 C-1004.71599832 73.25908351 -1001.41492603 73.48829667 -998.11376953 73.71826172 C-916.63811133 79.25581675 -833.1487901 78.75968641 -736.5637207 73.50152588 C-732.44966664 73.24574287 -728.33505412 73.001028 -724.22021484 72.75830078 C-692.23094902 71.0100532 -692.23094902 71.0100532 -660.34761047 68.00483704 C-651.33950073 66.94904002 -642.29581598 66.31787126 -633.25366211 65.62966919 C-601.11598388 63.17048578 -569.10132458 59.99627788 -537.10546875 56.11425781 C-526.81837888 54.8662184 -516.52802324 53.67505731 -506.22592163 52.55789185 C-475.90627264 49.26414962 -445.6330312 45.50686048 -415.45654297 41.08740234 C-404.52970958 39.49211923 -393.58462821 38.07593367 -382.62841797 36.69824219 C-370.77285095 35.20668297 -358.95435286 33.60174454 -347.15429688 31.71191406 C-341.36037104 30.79410122 -335.56160252 29.96463469 -329.74169922 29.22949219 C-329.05723724 29.14292862 -328.37277527 29.05636505 -327.66757202 28.96717834 C-324.34825812 28.54971862 -321.02822746 28.14125721 -317.70654297 27.74291992 C-310.13170792 26.80761255 -302.71868111 25.50881521 -295.24633789 23.95874023 C-290.17003344 22.96216299 -285.07610178 22.30512755 -279.94091797 21.69824219 C-278.04994464 21.47064911 -276.15931442 21.24018669 -274.26904297 21.00683594 C-273.45854492 20.91072021 -272.64804687 20.81460449 -271.81298828 20.71557617 C-269.07421564 20.31658232 -266.37383492 19.8352342 -263.65429688 19.32470703 C-257.36110304 18.16676333 -251.04380513 17.31013406 -244.69873047 16.49121094 C-243.46008743 16.32991699 -242.2214444 16.16862305 -240.94526672 16.00244141 C-236.90280213 15.47913323 -232.85959163 14.96210294 -228.81591797 14.44824219 C-228.12153248 14.35984196 -227.42714699 14.27144173 -226.71171951 14.1803627 C-190.63014271 9.59275603 -154.48662513 5.98574374 -118.19091797 3.57324219 C-117.37106415 3.51816498 -116.55121033 3.46308777 -115.70651245 3.40634155 C-110.27167554 3.04800142 -104.8350519 2.74058869 -99.39587402 2.45599365 C-96.68048041 2.3128922 -93.96553318 2.16523929 -91.25061035 2.01373291 C-60.82903498 0.33355352 -30.46420209 -0.05557267 0 0 Z " fill="#FE8230" transform="translate(1269.69091796875,144.7392578125)"/>
</svg>
